HIERARCHY
ROOT Hips
{
	OFFSET 0.000000 0.000000 0.000000
	CHANNELS 6 Xposition Yposition Zposition Zrotation Yrotation Xrotation 
	JOINT LHipJoint
	{
		OFFSET 0.000000 0.000000 0.000000
		CHANNELS 3 Zrotation Yrotation Xrotation
		JOINT LeftUpLeg
		{
			OFFSET 1.363060 -1.794630 0.839290
			CHANNELS 3 Zrotation Yrotation Xrotation
			JOINT LeftLeg
			{
				OFFSET 2.448110 -6.726130 0.000000
				CHANNELS 3 Zrotation Yrotation Xrotation
				JOINT LeftFoot
				{
					OFFSET 2.562200 -7.039590 0.000000
					CHANNELS 3 Zrotation Yrotation Xrotation
					JOINT LeftToeBase
					{
						OFFSET 0.157640 -0.433110 2.322550
						CHANNELS 3 Zrotation Yrotation Xrotation
						End Site
						{
							OFFSET 0.000000 0.000000 0.000000
						}
					}
				}
			}
		}
	}
	JOINT RHipJoint
	{
		OFFSET 0.000000 0.000000 0.000000
		CHANNELS 3 Zrotation Yrotation Xrotation
		JOINT RightUpLeg
		{
			OFFSET -1.305520 -1.794630 0.839290
			CHANNELS 3 Zrotation Yrotation Xrotation
			JOINT RightLeg
			{
				OFFSET -2.542530 -6.985550 0.000000
				CHANNELS 3 Zrotation Yrotation Xrotation
				JOINT RightFoot
				{
					OFFSET -2.568260 -7.056230 0.000000
					CHANNELS 3 Zrotation Yrotation Xrotation
					JOINT RightToeBase
					{
						OFFSET -0.164730 -0.452590 2.363150
						CHANNELS 3 Zrotation Yrotation Xrotation
						End Site
						{
							OFFSET 0.000000 0.000000 0.000000
						}
					}
				}
			}
		}
	}
	JOINT LowerBack
	{
		OFFSET 0.000000 0.000000 0.000000
		CHANNELS 3 Zrotation Yrotation Xrotation
		JOINT Spine
		{
			OFFSET 0.028270 2.035590 -0.193380
			CHANNELS 3 Zrotation Yrotation Xrotation
			JOINT Spine1
			{
				OFFSET 0.056720 2.048850 -0.042750
				CHANNELS 3 Zrotation Yrotation Xrotation
				JOINT Neck
				{
					OFFSET 0.000000 0.000000 0.000000
					CHANNELS 3 Zrotation Yrotation Xrotation
					JOINT Neck1
					{
						OFFSET -0.054170 1.746240 0.172020
						CHANNELS 3 Zrotation Yrotation Xrotation
						JOINT Head
						{
							OFFSET 0.104070 1.761360 -0.123970
							CHANNELS 3 Zrotation Yrotation Xrotation
							End Site
							{
								OFFSET 0.000000 0.000000 0.000000
							}
						}
					}
				}
				JOINT LeftShoulder
				{
					OFFSET 0.000000 0.000000 0.000000
					CHANNELS 3 Zrotation Yrotation Xrotation
					JOINT LeftArm
					{
						OFFSET 3.362410 1.200890 -0.311210
						CHANNELS 3 Zrotation Yrotation Xrotation
						JOINT LeftForeArm
						{
							OFFSET 4.983000 -0.000000 -0.000000
							CHANNELS 3 Zrotation Yrotation Xrotation
							JOINT LeftHand
							{
								OFFSET 3.483560 -0.000000 -0.000000
								CHANNELS 3 Zrotation Yrotation Xrotation
								JOINT LeftFingerBase
								{
									OFFSET 0.000000 0.000000 0.000000
									CHANNELS 3 Zrotation Yrotation Xrotation
									JOINT LeftHandIndex1
									{
										OFFSET 0.715260 -0.000000 -0.000000
										CHANNELS 3 Zrotation Yrotation Xrotation
										End Site
										{
											OFFSET 0.000000 0.000000 0.000000
										}
									}
								}
								JOINT LThumb
								{
									OFFSET 0.000000 0.000000 0.000000
									CHANNELS 3 Zrotation Yrotation Xrotation
									End Site
									{
										OFFSET 0.000000 0.000000 0.000000
									}
								}
							}
						}
					}
				}
				JOINT RightShoulder
				{
					OFFSET 0.000000 0.000000 0.000000
					CHANNELS 3 Zrotation Yrotation Xrotation
					JOINT RightArm
					{
						OFFSET -3.136600 1.374050 -0.404650
						CHANNELS 3 Zrotation Yrotation Xrotation
						JOINT RightForeArm
						{
							OFFSET -5.241900 -0.000000 -0.000000
							CHANNELS 3 Zrotation Yrotation Xrotation
							JOINT RightHand
							{
								OFFSET -3.444170 -0.000000 -0.000000
								CHANNELS 3 Zrotation Yrotation Xrotation
								JOINT RightFingerBase
								{
									OFFSET 0.000000 0.000000 0.000000
									CHANNELS 3 Zrotation Yrotation Xrotation
									JOINT RightHandIndex1
									{
										OFFSET -0.622530 -0.000000 -0.000000
										CHANNELS 3 Zrotation Yrotation Xrotation
										End Site
										{
											OFFSET 0.000000 0.000000 0.000000
										}
									}
								}
								JOINT RThumb
								{
									OFFSET 0.000000 0.000000 0.000000
									CHANNELS 3 Zrotation Yrotation Xrotation
									End Site
									{
										OFFSET 0.000000 0.000000 0.000000
									}
								}
							}
						}
					}
				}
			}
		}
	}
}
MOTION
Frames: 9
Frame Time: 0.008333
9.701011 18.021907 -0.097253 2.598215 -5.882180 7.325466 -0.870866 -1.887863 -2.252363 -19.586279 2.516951 -33.384886 -1.915728 10.642084 26.051017 0.830902 3.953322 19.630051 0.016200 -0.821200 -2.257000 -0.076010 -1.849624 2.005810 11.954834 -1.126698 -4.457891 -7.283896 -14.893674 49.557641 1.459355 -14.843725 27.537764 -1.355800 7.370600 -20.818200 -5.133374 4.612526 -2.054685 0.071583 5.643534 -5.017054 4.458541 3.241656 5.665932 -10.172449 -5.089380 -16.592823 5.923605 -4.594917 7.779552 5.898800 -2.470100 10.972700 -1.408860 -6.305936 -0.635069 -83.313119 16.463331 -2.822234 2.716568 -9.435219 -0.775816 0.258043 2.087139 25.468645 14.793816 -25.283752 -7.222200 -7.125000 0.000000 0.000000 -8.741600 2.141600 8.509600 -0.633801 8.414689 0.859315 73.108488 8.194001 42.313522 -26.473742 31.860664 -10.462639 2.718703 2.021093 -22.187573 -33.428592 -19.148751 13.902200 7.125000 0.000000 0.000000 -8.893800 -53.468900 1.863900 
9.732153 18.062011 0.123041 2.839620 -5.887272 7.313860 -0.970309 -1.842215 -2.071827 -19.933890 2.462118 -32.636740 -1.935967 10.511412 25.917455 0.752094 3.966134 18.911974 0.011000 -0.677700 -1.862400 -0.141820 -1.673762 1.709805 11.886551 -0.838992 -6.120257 -8.319360 -15.638623 52.645266 2.203389 -16.582202 25.214748 -0.999500 6.362100 -17.838800 -5.298561 4.464175 -2.044840 0.067989 5.482481 -4.985078 4.517012 3.102683 5.938176 -10.231071 -5.030965 -16.995181 6.023053 -4.455742 7.763795 6.000800 -2.385200 11.066400 -1.418017 -6.344914 -0.649675 -83.509291 15.555098 0.864243 3.130023 -10.086287 -0.855724 0.128360 2.061408 22.110724 15.193638 -25.158431 -7.373000 -7.125000 0.000000 0.000000 -8.494800 2.243000 8.248100 -0.613165 8.406076 0.842961 73.506868 8.118242 42.052817 -25.429248 31.071891 -9.997399 2.844485 2.292334 -22.071866 -34.802572 -21.631162 16.429600 7.125000 0.000000 0.000000 -10.644500 -56.825800 3.109300 
9.754773 18.104627 0.322792 2.886809 -5.655455 7.316715 -1.052146 -1.808937 -1.891024 -20.094672 2.487059 -31.994488 -1.957213 10.386452 25.819609 0.812967 3.631423 18.417389 0.009900 -0.642000 -1.764300 -0.203999 -1.496442 1.458946 12.122045 -0.477421 -7.599044 -9.220402 -16.267510 55.498074 3.231874 -18.409144 21.308164 -0.346000 3.779500 -10.457200 -5.284545 4.268732 -1.747474 0.089711 5.221645 -5.010815 4.543241 2.944102 5.781032 -10.289173 -4.972534 -17.177662 6.096677 -4.319676 7.738298 6.082100 -2.316700 11.160500 -1.404456 -6.441520 -0.691994 -83.777846 14.898448 4.495096 3.610853 -10.793551 -0.956916 0.010598 2.047375 18.910316 15.819679 -25.232343 -7.690400 -7.125000 0.000000 0.000000 -8.128000 2.087800 7.907300 -0.604065 8.474143 0.811644 73.935063 7.755397 42.067962 -24.434268 30.255990 -9.517020 2.948531 2.448291 -22.473943 -36.140666 -22.760567 18.042500 7.125000 0.000000 0.000000 -12.467400 -58.495500 4.156100 
9.786462 18.153909 0.527241 2.626424 -5.350774 7.364833 -1.132514 -1.788312 -1.708978 -20.008051 2.702469 -31.394918 -1.979952 10.237945 25.680508 0.953701 3.143705 18.145557 0.003500 -0.384200 -1.055800 -0.249085 -1.301941 1.225805 12.647428 -0.111331 -9.095099 -9.883717 -16.783823 58.023353 3.902793 -18.907881 17.363368 -0.148400 2.482800 -6.841800 -4.814432 4.074133 -1.475630 0.125827 4.943664 -5.045210 4.407947 2.802203 5.546100 -10.275001 -4.833677 -17.109721 6.050110 -4.124717 7.713815 6.091500 -2.237600 11.132300 -1.397529 -6.539453 -0.721106 -83.777858 14.381609 9.143287 4.182985 -11.619760 -1.073797 -0.131147 2.010149 14.907826 16.324265 -25.233372 -7.924800 -7.125000 0.000000 0.000000 -7.830100 2.037300 7.619100 -0.573288 8.521178 0.780080 74.354542 7.186288 42.134870 -23.398110 29.340747 -8.908917 3.005558 2.376865 -22.646133 -36.230229 -21.929348 17.472200 7.125000 0.000000 0.000000 -12.594000 -57.444100 3.879200 
9.828423 18.211933 0.743928 2.160747 -5.138953 7.464180 -1.235284 -1.764062 -1.535206 -19.639116 2.783988 -30.661544 -2.009721 10.048082 25.398616 0.992779 2.983016 17.846782 0.000600 -0.161200 -0.442900 -0.267707 -1.100256 0.980736 13.329701 0.174830 -10.764654 -10.436000 -17.234994 60.093878 4.258284 -19.158661 14.834359 -0.235300 3.121700 -8.617800 -4.008326 3.929583 -1.382527 0.166848 4.734971 -5.053004 4.169295 2.697485 5.499982 -10.175920 -4.700558 -16.989774 5.826830 -3.988634 7.703502 5.957400 -2.197200 11.024100 -1.386088 -6.622124 -0.718155 -83.766861 13.670214 13.148019 4.740222 -12.368730 -1.187512 -0.233238 1.957948 12.081791 16.773509 -25.015786 -8.071000 -7.125000 0.000000 0.000000 -7.542400 2.227400 7.307900 -0.506216 8.507511 0.754054 74.707298 6.639781 41.862192 -22.309097 28.343522 -8.231974 3.019684 2.190037 -22.175801 -35.196786 -20.382570 15.734300 7.125000 0.000000 0.000000 -11.257400 -55.267800 2.864400 
9.860549 18.266788 0.961272 1.829361 -5.005329 7.587213 -1.368970 -1.724213 -1.343698 -19.316977 2.723581 -29.804759 -2.080625 9.790007 24.916677 0.986776 2.951823 17.472091 0.003300 -0.370500 -1.018100 -0.276704 -0.914945 0.746810 13.880728 0.482104 -12.445205 -10.914042 -17.625654 61.785827 4.488686 -19.420789 13.187538 -0.403500 4.078300 -11.297000 -3.513129 3.732636 -1.341110 0.214762 4.464317 -5.076826 4.081287 2.545518 5.432913 -10.041182 -4.590419 -17.041578 5.651707 -3.881115 7.801615 5.809500 -2.166300 11.080500 -1.342369 -6.710321 -0.738537 -83.919624 12.950070 15.827052 5.252605 -13.044258 -1.307530 -0.235451 1.897953 10.621382 16.625900 -24.835056 -7.912700 -7.125000 0.000000 0.000000 -7.645400 2.480600 7.374100 -0.451792 8.497940 0.704176 75.169712 5.919688 41.514305 -21.460637 27.573613 -7.754448 3.045159 2.093959 -21.690743 -34.842602 -19.707094 15.042900 7.125000 0.000000 0.000000 -10.823100 -54.335100 2.505000 
9.887102 18.314103 1.175993 1.865589 -4.778439 7.713607 -1.483074 -1.674181 -1.162559 -19.374622 2.420705 -28.958771 -2.134415 9.601354 24.596842 0.931716 2.950681 16.794523 0.005900 -0.495300 -1.360900 -0.291926 -0.753187 0.535571 14.077081 0.704820 -14.135995 -11.346781 -17.962048 63.186314 4.657040 -19.709891 12.136035 -0.616000 5.023100 -13.974400 -3.469286 3.471970 -1.329613 0.243761 4.124803 -5.121180 4.068152 2.352343 5.276493 -9.908378 -4.439897 -17.109632 5.639070 -3.706448 7.894158 5.770900 -2.086300 11.169700 -1.310679 -6.789310 -0.775811 -83.927778 12.410814 18.671269 5.828267 -13.828962 -1.455928 -0.202546 1.837112 8.877317 16.025221 -24.954659 -7.600700 -7.125000 0.000000 0.000000 -8.071600 2.498800 7.790700 -0.429119 8.510219 0.650730 75.718824 5.089012 41.252392 -20.697676 26.899263 -7.391065 3.098011 2.117683 -21.507206 -35.213950 -19.958545 15.428400 7.125000 0.000000 0.000000 -11.311000 -54.713500 2.725000 
9.913983 18.360544 1.369733 2.476770 -4.319701 7.864672 -1.610474 -1.626625 -0.999227 -20.019172 1.843809 -28.051670 -2.261516 9.344257 24.051209 0.842454 3.033214 16.213386 0.003600 -0.386800 -1.062900 -0.320637 -0.601874 0.317128 13.585448 0.692365 -16.017392 -11.729423 -18.255654 64.294408 4.774672 -19.888090 11.396172 -0.635500 5.100400 -14.195100 -3.996334 3.193802 -1.347649 0.236878 3.787419 -5.147571 4.173213 2.146862 5.149553 -9.920919 -4.320325 -16.961311 5.660212 -3.544351 7.884342 5.793100 -2.013700 11.091900 -1.332178 -6.857889 -0.778846 -83.707862 11.685475 22.686501 6.368057 -14.547175 -1.586619 -0.258216 1.801314 6.046084 16.102849 -25.160616 -7.670000 -7.125000 0.000000 0.000000 -8.063300 2.299800 7.811900 -0.416533 8.516917 0.635034 76.084742 4.378831 40.840534 -19.930669 26.220883 -7.063590 3.150260 2.221482 -21.406894 -35.605254 -20.787366 16.286400 7.125000 0.000000 0.000000 -11.879600 -55.846600 3.193700 
9.910705 18.379885 1.520748 1.530935 -3.680223 7.891294 -1.741025 -1.604551 -0.863612 -18.835273 1.670654 -27.254557 -2.362822 8.994387 23.276158 0.863751 3.161607 16.677533 0.005800 -0.490900 -1.348800 -0.313562 -0.364647 0.042392 15.040202 1.044363 -17.845038 -12.031106 -18.587636 65.518671 4.900050 -20.061549 10.221039 -0.575000 4.856000 -13.498300 -2.976610 3.006998 -0.972785 0.320134 3.528939 -5.099407 4.065104 1.983352 5.336752 -9.806515 -4.279183 -17.113721 5.685516 -3.510915 7.793102 5.807900 -1.973400 11.035200 -1.331100 -6.935693 -0.732420 -83.262212 10.044627 26.247988 6.806293 -15.047983 -1.692008 -0.310437 1.788285 4.089489 16.565739 -25.218452 -7.906000 -7.125000 0.000000 0.000000 -7.797000 2.168300 7.567600 -0.353248 8.518125 0.636694 76.400459 4.169104 40.088430 -19.148888 25.515717 -6.736672 3.201734 2.285840 -20.993572 -35.791553 -21.458519 16.915800 7.125000 0.000000 0.000000 -12.192300 -56.735200 3.543300 
